<svg width="128" height="128" viewBox="0 0 128 128" fill="none" xmlns="http://www.w3.org/2000/svg">
<rect width="128" height="128" rx="64" fill="white"/>
<path d="M58.0469 77.7812C58.1094 74.0625 58.5312 71.125 59.3125 68.9688C60.0938 66.8125 61.6875 64.4219 64.0938 61.7969L70.2344 55.4688C72.8594 52.5 74.1719 49.3125 74.1719 45.9062C74.1719 42.625 73.3125 40.0625 71.5938 38.2188C69.875 36.3438 67.375 35.4062 64.0938 35.4062C60.9062 35.4062 58.3438 36.25 56.4062 37.9375C54.4688 39.625 53.5 41.8906 53.5 44.7344H44.8281C44.8906 39.6719 46.6875 35.5938 50.2188 32.5C53.7812 29.375 58.4062 27.8125 64.0938 27.8125C70 27.8125 74.5938 29.4062 77.875 32.5938C81.1875 35.75 82.8438 40.0938 82.8438 45.625C82.8438 51.0938 80.3125 56.4844 75.25 61.7969L70.1406 66.8594C67.8594 69.3906 66.7188 73.0312 66.7188 77.7812H58.0469ZM57.6719 92.6406C57.6719 91.2344 58.0938 90.0625 58.9375 89.125C59.8125 88.1562 61.0938 87.6719 62.7812 87.6719C64.4688 87.6719 65.75 88.1562 66.625 89.125C67.5 90.0625 67.9375 91.2344 67.9375 92.6406C67.9375 94.0469 67.5 95.2188 66.625 96.1562C65.75 97.0625 64.4688 97.5156 62.7812 97.5156C61.0938 97.5156 59.8125 97.0625 58.9375 96.1562C58.0938 95.2188 57.6719 94.0469 57.6719 92.6406Z" fill="black"/>
</svg>
